<svg width="1440" height="74" viewBox="0 0 1440 74" fill="none" xmlns="http://www.w3.org/2000/svg">
<path d="M0 20.3543L34.4239 21.5286C68.8478 22.7029 137.696 25.0514 206.223 21.92C274.911 18.7886 343.118 10.1771 411.806 17.4577C480.333 24.8166 549.181 47.9891 617.709 53.4691C686.396 58.9491 754.604 46.7366 823.291 42.0394C891.819 37.3423 960.667 40.1606 1029.19 40.0823C1097.88 39.9257 1166.09 36.7943 1234.78 29.592C1303.3 22.468 1372.15 11.1949 1406.58 5.63658L1441 0V137H1406.58C1372.15 137 1303.3 137 1234.78 137C1166.09 137 1097.88 137 1029.19 137C960.667 137 891.819 137 823.291 137C754.604 137 686.396 137 617.709 137C549.181 137 480.333 137 411.806 137C343.118 137 274.911 137 206.223 137C137.696 137 68.8478 137 34.4239 137H0V20.3543Z" fill="#6B705C"/>
</svg>
