<svg width="1440" height="96" viewBox="0 0 1440 96" fill="none" xmlns="http://www.w3.org/2000/svg">
<path d="M1440 62.0383L1405.6 62.1746C1371.2 62.2428 1302.4 62.5155 1233.92 63.1972C1165.28 63.879 1097.12 64.9698 1028.48 71.719C960 78.4 891.2 90.6713 822.72 94.5573C754.08 98.375 685.92 93.8755 617.28 89.6487C548.8 85.4219 480 81.6042 411.52 79.7635C342.88 77.9228 274.72 78.1955 206.08 75.1958C137.6 72.2644 68.8 66.1287 34.4 63.0609L-2.14577e-05 59.9931V7.29167e-07H34.4C68.8 7.29167e-07 137.6 7.29167e-07 206.08 7.29167e-07C274.72 7.29167e-07 342.88 7.29167e-07 411.52 7.29167e-07C480 7.29167e-07 548.8 7.29167e-07 617.28 7.29167e-07C685.92 7.29167e-07 754.08 7.29167e-07 822.72 7.29167e-07C891.2 7.29167e-07 960 7.29167e-07 1028.48 7.29167e-07C1097.12 7.29167e-07 1165.28 7.29167e-07 1233.92 7.29167e-07C1302.4 7.29167e-07 1371.2 7.29167e-07 1405.6 7.29167e-07H1440V62.0383Z" fill="#6B705C"/>
</svg>
