<svg width="49" height="49" viewBox="0 0 49 49" fill="none" xmlns="http://www.w3.org/2000/svg">
<path fill-rule="evenodd" clip-rule="evenodd" d="M16.5778 28.4957C16.083 28.8421 15.9628 29.5241 16.3092 30.0189C16.6557 30.5138 17.3377 30.634 17.8325 30.2875L30.9731 21.0864C30.9956 21.0707 31.0172 21.0543 31.0381 21.0374C31.1241 21.6588 31.0408 22.4519 30.6931 23.4395L30.6847 23.4632L30.6774 23.4871L28.3444 31.2246C28.17 31.8029 28.4975 32.4132 29.0758 32.5875C29.6541 32.762 30.2644 32.4345 30.4387 31.8562L32.7648 24.142C33.474 22.1127 33.4585 20.1866 32.4363 18.7267C31.4141 17.2667 29.6093 16.5935 27.4599 16.5659L19.4154 16.1133C18.8123 16.0793 18.2959 16.5408 18.262 17.1438C18.228 17.7469 18.6895 18.2633 19.2925 18.2972L27.3614 18.7513L27.3863 18.7526L27.4114 18.7529C28.4584 18.7638 29.2322 18.9569 29.7867 19.2502C29.7637 19.2641 29.7409 19.2788 29.7184 19.2945L16.5778 28.4957Z" fill="white"/>
</svg>
